# xmcd CD database file
#
# Track frame offsets:
#	150
#	11096
#	22036
#	32980
#	40679
#	48375
#	56077
#	63311
#	70546
#	77790
#	85472
#	93155
#	100860
#	107847
#	114834
#	121823
#	129470
#	137120
#	144761
#	151505
#	158243
#	164989
#	172326
#	179649
#	186967
#	193301
#	199650
#	205984
#	214722
#	223463
#	232206
#	241754
#	251284
#	260823
#	267621
#	274360
#	281099
#	288627
#	296156
#	303689
#	309481
#	315267
#	321049
#	328467
#	335891
#
# Disc length: 4574 seconds
#
# Revision: 1
# Processed by: cddbd v1.5.2PL0 Copyright (c) Steve Scherf et al.
# Submitted via: CDex 1.51
#
DISCID=cc11dc2d
DTITLE=Frank Sark - Manhatten Crooners CD1 Romantic and Intimate Jazz Songs
DYEAR=2007
DGENRE=Jazz
TTITLE0=A Place That I Call Home
TTITLE1=A Place That I Call Home (Instrumental)
TTITLE2=A Place That I Call Home (Underscore)
TTITLE3=Every Time I Close My Eyes
TTITLE4=Every Time I Close My Eyes (Instrumental)
TTITLE5=Every Time I Close My Eyes (Underscore)
TTITLE6=The First Day
TTITLE7=The First Day (Instrumental)
TTITLE8=The First Day (Underscore)
TTITLE9=I Just Think About You
TTITLE10=I Just Think About You (Instrumental)
TTITLE11=I Just Think About You (Underscore)
TTITLE12=I've Been Here Before
TTITLE13=I've Been Here Before (Instrumental)
TTITLE14=I've Been Here Before (Underscore)
TTITLE15=Kiss Me
TTITLE16=Kiss Me (Instrumental)
TTITLE17=Kiss Me (Underscore)
TTITLE18=Impossible Love
TTITLE19=Impossible Love (Instrumental)
TTITLE20=Impossible Love (Underscore)
TTITLE21=Don't Be Afraid
TTITLE22=Don't Be Afraid (Instrumental)
TTITLE23=Don't Be Afraid (Underscore)
TTITLE24=Follow Your Road
TTITLE25=Follow Your Road (Instrumental)
TTITLE26=Follow Your Road (Underscore)
TTITLE27=This Day
TTITLE28=This Day (Instrumental)
TTITLE29=This Day (Underscore)
TTITLE30=In Tune For Love
TTITLE31=In Tune For Love (Instrumental)
TTITLE32=In Tune For Love (Underscore)
TTITLE33=I Believe In You
TTITLE34=I Believe In You (Instrumental)
TTITLE35=I Believe In You (Underscore)
TTITLE36=Thanks For That
TTITLE37=Thanks For That (Instrumental)
TTITLE38=Thanks For That (Underscore)
TTITLE39=Where Ever You Are
TTITLE40=Where Ever You Are (Instrumental)
TTITLE41=Where Ever You Are (Underscore)
TTITLE42=Thoughts of You
TTITLE43=Thoughts of You (Instrumental)
TTITLE44=Thoughts of You (Underscore)
EXTD=YEAR: 2007
EXTT0=
EXTT1=
EXTT2=
EXTT3=
EXTT4=
EXTT5=
EXTT6=
EXTT7=
EXTT8=
EXTT9=
EXTT10=
EXTT11=
EXTT12=
EXTT13=
EXTT14=
EXTT15=
EXTT16=
EXTT17=
EXTT18=
EXTT19=
EXTT20=
EXTT21=
EXTT22=
EXTT23=
EXTT24=
EXTT25=
EXTT26=
EXTT27=
EXTT28=
EXTT29=
EXTT30=
EXTT31=
EXTT32=
EXTT33=
EXTT34=
EXTT35=
EXTT36=
EXTT37=
EXTT38=
EXTT39=
EXTT40=
EXTT41=
EXTT42=
EXTT43=
EXTT44=
PLAYORDER=
